<svg aria-hidden="true" style="position: absolute; width: 0; height: 0; overflow: hidden;" version="1.1" xmlns="http://www.w3.org/2000/svg" xmlns:xlink="http://www.w3.org/1999/xlink">
<defs>
<symbol id="reshot" viewBox="0 0 32 32">
<path d="M29.265 23.579c-2.017-6.665-7.613-11.631-14.497-12.704l-0.101-0.013v-4.195c-0-0.736-0.597-1.333-1.333-1.333-0.368 0-0.701 0.149-0.943 0.39l-9.333 9.333c-0.241 0.241-0.39 0.575-0.39 0.943s0.149 0.701 0.39 0.943l9.333 9.333c0.241 0.241 0.575 0.391 0.943 0.391h0c0.001 0 0.003 0 0.004 0 0.183 0 0.357-0.037 0.515-0.105l-0.009 0.003c0.487-0.206 0.823-0.68 0.823-1.232 0-0 0-0 0-0v0-4c4.843-0.023 7.505-0.033 12.533 3.733 0.22 0.167 0.499 0.267 0.8 0.267 0.736 0 1.333-0.597 1.333-1.333 0-0.151-0.025-0.296-0.071-0.431l0.003 0.009zM13.333 18.667c-0.736 0-1.333 0.597-1.333 1.333v0 2.115l-6.115-6.115 6.115-6.115v2.168c0 0.001 0 0.003 0 0.004 0 0.699 0.538 1.272 1.222 1.329l0.005 0c4.919 0.371 9.136 3.070 11.59 6.987l0.037 0.063c-3.889-1.956-6.887-1.788-11.52-1.769z"></path>
</symbol>
<symbol id="lupa" viewBox="0 0 32 32">
<path d="M13.803 25.882c2.786 0 5.489-0.885 7.682-2.515l6.897 6.551 2.217-2.108-6.897-6.551c1.641-1.964 2.641-4.513 2.65-7.296v-0.002c0-6.573-5.628-11.923-12.55-11.923-6.92 0-12.548 5.35-12.548 11.923s5.628 11.921 12.548 11.921zM13.803 5.020c5.192 0 9.412 4.009 9.412 8.941s-4.22 8.941-9.412 8.941c-5.19 0-9.412-4.009-9.412-8.941s4.222-8.941 9.412-8.941z"></path>
</symbol>
</defs>
</svg>
